<svg width="1280" height="720" viewBox="0 0 1280 720" fill="none" xmlns="http://www.w3.org/2000/svg">
  <rect width="1280" height="720" rx="28" fill="#F3EEE5"/>
  <rect x="24" y="24" width="1232" height="672" rx="24" fill="#F8F5EF" stroke="#E6DDCF"/>
  <rect x="48" y="48" width="260" height="624" rx="24" fill="#0F3D5E"/>
  <text x="76" y="96" fill="#E5EEF5" font-size="16" font-family="Arial" letter-spacing="4">TOKENLENS</text>
  <text x="76" y="146" fill="white" font-size="34" font-family="Arial" font-weight="700">Cost intelligence</text>
  <text x="76" y="184" fill="white" font-size="34" font-family="Arial" font-weight="700">for every feature.</text>
  <rect x="72" y="244" width="212" height="52" rx="18" fill="white"/>
  <text x="102" y="278" fill="#0F3D5E" font-size="20" font-family="Arial" font-weight="700">Overview</text>
  <rect x="72" y="312" width="212" height="52" rx="18" fill="#1A517A"/>
  <text x="102" y="346" fill="white" font-size="20" font-family="Arial">Anomalies</text>
  <rect x="72" y="380" width="212" height="52" rx="18" fill="#1A517A"/>
  <text x="102" y="414" fill="white" font-size="20" font-family="Arial">Budgets</text>
  <rect x="72" y="448" width="212" height="52" rx="18" fill="#1A517A"/>
  <text x="102" y="482" fill="white" font-size="20" font-family="Arial">Optimizer</text>
  <text x="344" y="94" fill="#B45309" font-size="15" font-family="Arial" letter-spacing="4">CONTROL ROOM</text>
  <text x="344" y="136" fill="#111827" font-size="38" font-family="Arial" font-weight="700">Usage patterns across your LLM surface area.</text>
  <rect x="344" y="168" width="206" height="106" rx="24" fill="white" stroke="#E5E7EB"/>
  <rect x="568" y="168" width="206" height="106" rx="24" fill="white" stroke="#E5E7EB"/>
  <rect x="792" y="168" width="206" height="106" rx="24" fill="white" stroke="#E5E7EB"/>
  <rect x="1016" y="168" width="206" height="106" rx="24" fill="white" stroke="#E5E7EB"/>
  <text x="370" y="204" fill="#6B7280" font-size="14" font-family="Arial" letter-spacing="3">TOTAL COST</text>
  <text x="370" y="246" fill="#111827" font-size="34" font-family="Arial" font-weight="700">$18,420</text>
  <text x="594" y="204" fill="#6B7280" font-size="14" font-family="Arial" letter-spacing="3">TOTAL TOKENS</text>
  <text x="594" y="246" fill="#111827" font-size="34" font-family="Arial" font-weight="700">92.4M</text>
  <text x="818" y="204" fill="#6B7280" font-size="14" font-family="Arial" letter-spacing="3">TOTAL CALLS</text>
  <text x="818" y="246" fill="#111827" font-size="34" font-family="Arial" font-weight="700">184k</text>
  <text x="1042" y="204" fill="#6B7280" font-size="14" font-family="Arial" letter-spacing="3">AVG LATENCY</text>
  <text x="1042" y="246" fill="#111827" font-size="34" font-family="Arial" font-weight="700">238ms</text>
  <rect x="344" y="300" width="604" height="336" rx="24" fill="white" stroke="#E5E7EB"/>
  <text x="372" y="342" fill="#111827" font-size="28" font-family="Arial" font-weight="700">Spend over time</text>
  <path d="M384 564C432 540 480 520 528 492C576 464 624 430 672 412C720 394 768 392 816 358C848 336 880 312 908 286V596H384V564Z" fill="url(#paint0_linear)"/>
  <path d="M384 564C432 540 480 520 528 492C576 464 624 430 672 412C720 394 768 392 816 358C848 336 880 312 908 286" stroke="#0F3D5E" stroke-width="5" stroke-linecap="round"/>
  <line x1="384" y1="596" x2="908" y2="596" stroke="#CBD5E1"/>
  <line x1="384" y1="520" x2="908" y2="520" stroke="#E5E7EB"/>
  <line x1="384" y1="444" x2="908" y2="444" stroke="#E5E7EB"/>
  <line x1="384" y1="368" x2="908" y2="368" stroke="#E5E7EB"/>
  <rect x="972" y="300" width="250" height="336" rx="24" fill="white" stroke="#E5E7EB"/>
  <text x="1000" y="342" fill="#111827" font-size="28" font-family="Arial" font-weight="700">Feature mix</text>
  <rect x="996" y="372" width="202" height="64" rx="18" fill="#F8FAFC"/>
  <text x="1016" y="404" fill="#111827" font-size="20" font-family="Arial" font-weight="700">summaries</text>
  <text x="1132" y="404" fill="#0F3D5E" font-size="20" font-family="Arial" font-weight="700">$7.1k</text>
  <rect x="996" y="452" width="202" height="64" rx="18" fill="#F8FAFC"/>
  <text x="1016" y="484" fill="#111827" font-size="20" font-family="Arial" font-weight="700">chat</text>
  <text x="1150" y="484" fill="#0F3D5E" font-size="20" font-family="Arial" font-weight="700">$5.3k</text>
  <rect x="996" y="532" width="202" height="64" rx="18" fill="#F8FAFC"/>
  <text x="1016" y="564" fill="#111827" font-size="20" font-family="Arial" font-weight="700">routing</text>
  <text x="1140" y="564" fill="#0F3D5E" font-size="20" font-family="Arial" font-weight="700">$2.8k</text>
  <defs>
    <linearGradient id="paint0_linear" x1="646" y1="286" x2="646" y2="596" gradientUnits="userSpaceOnUse">
      <stop stop-color="#0F3D5E" stop-opacity="0.34"/>
      <stop offset="1" stop-color="#0F3D5E" stop-opacity="0.02"/>
    </linearGradient>
  </defs>
</svg>
